<svg width="24" height="24" viewBox="0 0 24 24" fill="none" xmlns="http://www.w3.org/2000/svg">
<g clip-path="url(#clip0_1_2)">
<path d="M9 17H11V8H9V17ZM13 17H15V8H13V17Z" fill="#1F1F1F"/>
<path d="M7 19H17V6H19V19C19 19.55 18.8042 20.0208 18.4125 20.4125C18.0208 20.8042 17.55 21 17 21H7C6.45 21 5.97917 20.8042 5.5875 20.4125C5.19583 20.0208 5 19.55 5 19V6H7V19Z" fill="#1F1F1F"/>
<path d="M18.2653 2.15661L16.3335 2.67425L6.67423 5.26243L4.74238 5.78007L3.77646 6.03889L3.25882 4.10704L8.08845 2.81294L7.82963 1.84702L13.6252 0.294106L13.884 1.26003L18.7136 -0.0340622L19.2313 1.89779L18.2653 2.15661Z" fill="#1F1F1F"/>
</g>
<defs>
<clipPath id="clip0_1_2">
<rect width="24" height="24" fill="white"/>
</clipPath>
</defs>
</svg>
