<svg width="63" height="16" viewBox="0 0 63 16" fill="none" xmlns="http://www.w3.org/2000/svg">
<path d="M1.73543 13.8221C1.73543 14.1268 1.84676 14.3671 2.06941 14.5428C2.29207 14.7186 2.55574 14.8065 2.86043 14.8065C3.23152 14.8065 3.5909 14.7206 3.93855 14.5487C4.52449 14.2635 4.81746 13.7968 4.81746 13.1483V12.2987C4.68855 12.3807 4.52254 12.4491 4.31941 12.5038C4.11629 12.5585 3.91707 12.5975 3.72176 12.621L3.08308 12.703C2.70027 12.7538 2.41316 12.8339 2.22176 12.9432C1.89754 13.1268 1.73543 13.4198 1.73543 13.8221ZM4.29012 11.6893C4.5323 11.6581 4.69441 11.5565 4.77644 11.3846C4.82332 11.2909 4.84676 11.1561 4.84676 10.9803C4.84676 10.621 4.71785 10.3612 4.46004 10.201C4.20613 10.037 3.8409 9.95496 3.36433 9.95496C2.81355 9.95496 2.42293 10.1034 2.19246 10.4003C2.06355 10.5643 1.97957 10.8085 1.94051 11.1327H0.956131C0.975662 10.3593 1.22566 9.82214 1.70613 9.52136C2.19051 9.21667 2.75105 9.06433 3.38777 9.06433C4.12605 9.06433 4.72566 9.20496 5.1866 9.48621C5.64363 9.76746 5.87215 10.205 5.87215 10.7987V14.4139C5.87215 14.5233 5.89363 14.6112 5.9366 14.6776C5.98347 14.744 6.07918 14.7772 6.22371 14.7772C6.27058 14.7772 6.32332 14.7753 6.38191 14.7714C6.44051 14.7635 6.50301 14.7538 6.56941 14.7421V15.5214C6.40535 15.5682 6.28035 15.5975 6.19441 15.6093C6.10847 15.621 5.99129 15.6268 5.84285 15.6268C5.47957 15.6268 5.2159 15.4979 5.05183 15.2401C4.9659 15.1034 4.90535 14.91 4.87019 14.66C4.65535 14.9413 4.34676 15.1854 3.94441 15.3925C3.54207 15.5995 3.09871 15.703 2.61433 15.703C2.0323 15.703 1.55574 15.5272 1.18465 15.1757C0.817459 14.8202 0.633865 14.3768 0.633865 13.8456C0.633865 13.2635 0.815506 12.8124 1.17879 12.4921C1.54207 12.1718 2.01863 11.9745 2.60847 11.9003L4.29012 11.6893ZM7.63582 9.21667H8.63777V10.3007C8.7198 10.0897 8.92097 9.83386 9.24129 9.53308C9.5616 9.22839 9.93074 9.07605 10.3487 9.07605C10.3682 9.07605 10.4014 9.078 10.4483 9.08191C10.4952 9.08582 10.5753 9.09363 10.6886 9.10535V10.2186C10.6261 10.2069 10.5675 10.1991 10.5128 10.1952C10.462 10.1913 10.4053 10.1893 10.3428 10.1893C9.8116 10.1893 9.4034 10.3612 9.11824 10.705C8.83308 11.0448 8.69051 11.4374 8.69051 11.8827V15.4921H7.63582V9.21667ZM14.2159 9.07605C14.6612 9.07605 15.0928 9.18152 15.5108 9.39246C15.9288 9.59949 16.2471 9.86902 16.4659 10.201C16.6768 10.5175 16.8175 10.8866 16.8878 11.3085C16.9503 11.5975 16.9815 12.0585 16.9815 12.6913H12.3819C12.4014 13.328 12.5518 13.8397 12.8331 14.2264C13.1143 14.6093 13.5499 14.8007 14.1397 14.8007C14.6905 14.8007 15.13 14.619 15.4581 14.2557C15.6456 14.0448 15.7784 13.8007 15.8565 13.5233H16.8936C16.8663 13.7538 16.7745 14.0116 16.6182 14.2968C16.4659 14.578 16.294 14.8085 16.1026 14.9882C15.7823 15.3007 15.3858 15.5116 14.9132 15.621C14.6593 15.6835 14.3721 15.7147 14.0518 15.7147C13.2706 15.7147 12.6085 15.4315 12.0655 14.8651C11.5225 14.2948 11.2511 13.4979 11.2511 12.4745C11.2511 11.4667 11.5245 10.6483 12.0714 10.0194C12.6182 9.3905 13.3331 9.07605 14.2159 9.07605ZM15.8975 11.8534C15.8546 11.3964 15.755 11.0311 15.5987 10.7577C15.3096 10.2499 14.8272 9.99597 14.1514 9.99597C13.6671 9.99597 13.2608 10.1718 12.9327 10.5233C12.6046 10.871 12.4307 11.3143 12.4112 11.8534H15.8975ZM18.2823 9.21667H19.2843V10.1073C19.5811 9.74011 19.8956 9.47644 20.2276 9.31628C20.5596 9.15613 20.9288 9.07605 21.335 9.07605C22.2257 9.07605 22.8272 9.3866 23.1397 10.0077C23.3116 10.3475 23.3975 10.8339 23.3975 11.4667V15.4921H22.3253V11.537C22.3253 11.1542 22.2686 10.8456 22.1553 10.6112C21.9678 10.2206 21.628 10.0253 21.1358 10.0253C20.8858 10.0253 20.6807 10.0507 20.5206 10.1014C20.2315 10.1874 19.9776 10.3593 19.7589 10.6171C19.5831 10.8241 19.4678 11.0389 19.4132 11.2616C19.3624 11.4803 19.337 11.7948 19.337 12.205V15.4921H18.2823V9.21667ZM25.7706 13.8221C25.7706 14.1268 25.8819 14.3671 26.1046 14.5428C26.3272 14.7186 26.5909 14.8065 26.8956 14.8065C27.2667 14.8065 27.6261 14.7206 27.9737 14.5487C28.5596 14.2635 28.8526 13.7968 28.8526 13.1483V12.2987C28.7237 12.3807 28.5577 12.4491 28.3546 12.5038C28.1514 12.5585 27.9522 12.5975 27.7569 12.621L27.1182 12.703C26.7354 12.7538 26.4483 12.8339 26.2569 12.9432C25.9327 13.1268 25.7706 13.4198 25.7706 13.8221ZM28.3253 11.6893C28.5675 11.6581 28.7296 11.5565 28.8116 11.3846C28.8585 11.2909 28.8819 11.1561 28.8819 10.9803C28.8819 10.621 28.753 10.3612 28.4952 10.201C28.2413 10.037 27.8761 9.95496 27.3995 9.95496C26.8487 9.95496 26.4581 10.1034 26.2276 10.4003C26.0987 10.5643 26.0147 10.8085 25.9757 11.1327H24.9913C25.0108 10.3593 25.2608 9.82214 25.7413 9.52136C26.2257 9.21667 26.7862 9.06433 27.4229 9.06433C28.1612 9.06433 28.7608 9.20496 29.2218 9.48621C29.6788 9.76746 29.9073 10.205 29.9073 10.7987V14.4139C29.9073 14.5233 29.9288 14.6112 29.9718 14.6776C30.0186 14.744 30.1143 14.7772 30.2589 14.7772C30.3057 14.7772 30.3585 14.7753 30.4171 14.7714C30.4757 14.7635 30.5382 14.7538 30.6046 14.7421V15.5214C30.4405 15.5682 30.3155 15.5975 30.2296 15.6093C30.1436 15.621 30.0264 15.6268 29.878 15.6268C29.5147 15.6268 29.2511 15.4979 29.087 15.2401C29.0011 15.1034 28.9405 14.91 28.9053 14.66C28.6905 14.9413 28.3819 15.1854 27.9796 15.3925C27.5772 15.5995 27.1339 15.703 26.6495 15.703C26.0675 15.703 25.5909 15.5272 25.2198 15.1757C24.8526 14.8202 24.669 14.3768 24.669 13.8456C24.669 13.2635 24.8507 12.8124 25.2139 12.4921C25.5772 12.1718 26.0538 11.9745 26.6436 11.9003L28.3253 11.6893ZM38.0225 6.80261V8.16199C37.9444 8.15808 37.8682 8.15613 37.794 8.15613C37.7198 8.15222 37.63 8.15027 37.5245 8.15027C37.2628 8.15027 37.1026 8.22253 37.044 8.36707C36.9854 8.5116 36.96 8.73816 36.9678 9.04675V9.16394H38.0636V10.3417H36.9678V15.4921H35.3038V10.3417H34.3721V9.16394H35.2862V8.75378C35.2862 8.0741 35.4366 7.56824 35.7374 7.23621C36.0069 6.92371 36.5557 6.76746 37.3839 6.76746C37.4854 6.76746 37.5889 6.77136 37.6944 6.77917C37.7999 6.78699 37.9093 6.7948 38.0225 6.80261ZM40.7178 6.85535V15.4921H39.0538V6.85535H40.7178ZM47.6495 9.91394C48.1886 10.5897 48.4581 11.3885 48.4581 12.3104C48.4581 13.2479 48.1886 14.0507 47.6495 14.7186C47.1104 15.3827 46.2921 15.7147 45.1944 15.7147C44.0968 15.7147 43.2784 15.3827 42.7393 14.7186C42.2003 14.0507 41.9307 13.2479 41.9307 12.3104C41.9307 11.3885 42.2003 10.5897 42.7393 9.91394C43.2784 9.23816 44.0968 8.90027 45.1944 8.90027C46.2921 8.90027 47.1104 9.23816 47.6495 9.91394ZM45.1886 10.3124C44.7003 10.3124 44.3233 10.4862 44.0577 10.8339C43.796 11.1776 43.6651 11.6698 43.6651 12.3104C43.6651 12.951 43.796 13.4452 44.0577 13.7928C44.3233 14.1405 44.7003 14.3143 45.1886 14.3143C45.6768 14.3143 46.0518 14.1405 46.3136 13.7928C46.5753 13.4452 46.7061 12.951 46.7061 12.3104C46.7061 11.6698 46.5753 11.1776 46.3136 10.8339C46.0518 10.4862 45.6768 10.3124 45.1886 10.3124ZM54.505 15.4921L53.503 10.8397L52.4893 15.4921H50.755L48.962 9.10535H50.755L51.7511 13.6874L52.671 9.10535H54.3643L55.337 13.705L56.3331 9.10535H58.0733L56.2218 15.4921H54.505Z" fill="#1F1F1F"/>
<mask id="path-2-outside-1_42_67" maskUnits="userSpaceOnUse" x="54.4333" y="0" width="8" height="10" fill="black">
<rect fill="white" x="54.4333" width="8" height="10"/>
<path d="M59.6857 4.81055L62.1115 6.73242L61.8947 7.08984L59.0236 5.94141L58.5841 9H58.1623L57.7169 5.94141L54.8517 7.08984L54.6466 6.73242L57.0548 4.81055L54.6466 2.89453L54.8517 2.53125L57.7169 3.67383L58.1623 0.609375H58.5841L59.0236 3.67383L61.8947 2.53125L62.1115 2.89453L59.6857 4.81055Z"/>
</mask>
<path d="M59.6857 4.81055L59.6237 4.73207L59.5245 4.81043L59.6236 4.88893L59.6857 4.81055ZM62.1115 6.73242L62.197 6.78428L62.2427 6.70884L62.1736 6.65404L62.1115 6.73242ZM61.8947 7.08984L61.8575 7.18269L61.9362 7.21417L61.9802 7.1417L61.8947 7.08984ZM59.0236 5.94141L59.0607 5.84856L58.9427 5.80134L58.9246 5.92718L59.0236 5.94141ZM58.5841 9V9.1H58.6708L58.6831 9.01422L58.5841 9ZM58.1623 9L58.0633 9.01441L58.0758 9.1H58.1623V9ZM57.7169 5.94141L57.8159 5.927L57.7976 5.80134L57.6797 5.84858L57.7169 5.94141ZM54.8517 7.08984L54.765 7.13961L54.8082 7.215L54.8889 7.18266L54.8517 7.08984ZM54.6466 6.73242L54.5843 6.65426L54.5172 6.70777L54.5599 6.78219L54.6466 6.73242ZM57.0548 4.81055L57.1172 4.88871L57.2153 4.81043L57.1171 4.73229L57.0548 4.81055ZM54.6466 2.89453L54.5596 2.84537L54.5176 2.91967L54.5844 2.97278L54.6466 2.89453ZM54.8517 2.53125L54.8888 2.43836L54.8076 2.406L54.7646 2.48209L54.8517 2.53125ZM57.7169 3.67383L57.6799 3.76671L57.7977 3.81368L57.8159 3.68821L57.7169 3.67383ZM58.1623 0.609375V0.509375H58.0757L58.0633 0.594995L58.1623 0.609375ZM58.5841 0.609375L58.6831 0.59518L58.6708 0.509375H58.5841V0.609375ZM59.0236 3.67383L58.9246 3.68802L58.9426 3.81368L59.0606 3.76674L59.0236 3.67383ZM61.8947 2.53125L61.9806 2.48L61.9369 2.40683L61.8577 2.43834L61.8947 2.53125ZM62.1115 2.89453L62.1735 2.973L62.2423 2.91862L62.1974 2.84329L62.1115 2.89453ZM59.6857 4.81055L59.6236 4.88893L62.0494 6.8108L62.1115 6.73242L62.1736 6.65404L59.7478 4.73217L59.6857 4.81055ZM62.1115 6.73242L62.026 6.68056L61.8092 7.03798L61.8947 7.08984L61.9802 7.1417L62.197 6.78428L62.1115 6.73242ZM61.8947 7.08984L61.9318 6.997L59.0607 5.84856L59.0236 5.94141L58.9865 6.03425L61.8575 7.18269L61.8947 7.08984ZM59.0236 5.94141L58.9246 5.92718L58.4852 8.98578L58.5841 9L58.6831 9.01422L59.1226 5.95563L59.0236 5.94141ZM58.5841 9V8.9H58.1623V9V9.1H58.5841V9ZM58.1623 9L58.2612 8.98559L57.8159 5.927L57.7169 5.94141L57.618 5.95581L58.0633 9.01441L58.1623 9ZM57.7169 5.94141L57.6797 5.84858L54.8145 6.99702L54.8517 7.08984L54.8889 7.18266L57.7542 6.03423L57.7169 5.94141ZM54.8517 7.08984L54.9385 7.04008L54.7334 6.68265L54.6466 6.73242L54.5599 6.78219L54.765 7.13961L54.8517 7.08984ZM54.6466 6.73242L54.709 6.81058L57.1172 4.88871L57.0548 4.81055L56.9925 4.73239L54.5843 6.65426L54.6466 6.73242ZM57.0548 4.81055L57.1171 4.73229L54.7089 2.81628L54.6466 2.89453L54.5844 2.97278L56.9926 4.8888L57.0548 4.81055ZM54.6466 2.89453L54.7337 2.94369L54.9388 2.58041L54.8517 2.53125L54.7646 2.48209L54.5596 2.84537L54.6466 2.89453ZM54.8517 2.53125L54.8147 2.62414L57.6799 3.76671L57.7169 3.67383L57.754 3.58094L54.8888 2.43836L54.8517 2.53125ZM57.7169 3.67383L57.8159 3.68821L58.2612 0.623755L58.1623 0.609375L58.0633 0.594995L57.618 3.65945L57.7169 3.67383ZM58.1623 0.609375V0.709375H58.5841V0.609375V0.509375H58.1623V0.609375ZM58.5841 0.609375L58.4851 0.62357L58.9246 3.68802L59.0236 3.67383L59.1226 3.65963L58.6831 0.59518L58.5841 0.609375ZM59.0236 3.67383L59.0606 3.76674L61.9317 2.62416L61.8947 2.53125L61.8577 2.43834L58.9866 3.58092L59.0236 3.67383ZM61.8947 2.53125L61.8088 2.5825L62.0256 2.94578L62.1115 2.89453L62.1974 2.84329L61.9806 2.48L61.8947 2.53125ZM62.1115 2.89453L62.0495 2.81606L59.6237 4.73207L59.6857 4.81055L59.7477 4.88902L62.1735 2.973L62.1115 2.89453Z" fill="#1F1F1F" mask="url(#path-2-outside-1_42_67)"/>
</svg>
