<svg width="63" height="16" viewBox="0 0 63 16" fill="none" xmlns="http://www.w3.org/2000/svg">
<mask id="path-1-outside-1_42_67" maskUnits="userSpaceOnUse" x="54.4333" y="0" width="8" height="10" fill="black">
<rect fill="white" x="54.4333" width="8" height="10"/>
<path d="M59.6857 4.81055L62.1115 6.73242L61.8947 7.08984L59.0236 5.94141L58.5841 9H58.1623L57.7169 5.94141L54.8517 7.08984L54.6466 6.73242L57.0548 4.81055L54.6466 2.89453L54.8517 2.53125L57.7169 3.67383L58.1623 0.609375H58.5841L59.0236 3.67383L61.8947 2.53125L62.1115 2.89453L59.6857 4.81055Z"/>
</mask>
<path d="M59.6857 4.81055L62.1115 6.73242L61.8947 7.08984L59.0236 5.94141L58.5841 9H58.1623L57.7169 5.94141L54.8517 7.08984L54.6466 6.73242L57.0548 4.81055L54.6466 2.89453L54.8517 2.53125L57.7169 3.67383L58.1623 0.609375H58.5841L59.0236 3.67383L61.8947 2.53125L62.1115 2.89453L59.6857 4.81055Z" fill="#1F1F1F"/>
<path d="M59.6857 4.81055L59.6237 4.73207L59.5245 4.81043L59.6236 4.88893L59.6857 4.81055ZM62.1115 6.73242L62.197 6.78428L62.2427 6.70884L62.1736 6.65404L62.1115 6.73242ZM61.8947 7.08984L61.8575 7.18269L61.9362 7.21417L61.9802 7.1417L61.8947 7.08984ZM59.0236 5.94141L59.0607 5.84856L58.9427 5.80134L58.9246 5.92718L59.0236 5.94141ZM58.5841 9V9.1H58.6708L58.6831 9.01422L58.5841 9ZM58.1623 9L58.0633 9.01441L58.0758 9.1H58.1623V9ZM57.7169 5.94141L57.8159 5.927L57.7976 5.80134L57.6797 5.84858L57.7169 5.94141ZM54.8517 7.08984L54.765 7.13961L54.8082 7.215L54.8889 7.18266L54.8517 7.08984ZM54.6466 6.73242L54.5843 6.65426L54.5172 6.70777L54.5599 6.78219L54.6466 6.73242ZM57.0548 4.81055L57.1172 4.88871L57.2153 4.81043L57.1171 4.73229L57.0548 4.81055ZM54.6466 2.89453L54.5596 2.84537L54.5176 2.91967L54.5844 2.97278L54.6466 2.89453ZM54.8517 2.53125L54.8888 2.43836L54.8076 2.406L54.7646 2.48209L54.8517 2.53125ZM57.7169 3.67383L57.6799 3.76671L57.7977 3.81368L57.8159 3.68821L57.7169 3.67383ZM58.1623 0.609375V0.509375H58.0757L58.0633 0.594995L58.1623 0.609375ZM58.5841 0.609375L58.6831 0.59518L58.6708 0.509375H58.5841V0.609375ZM59.0236 3.67383L58.9246 3.68802L58.9426 3.81368L59.0606 3.76674L59.0236 3.67383ZM61.8947 2.53125L61.9806 2.48L61.9369 2.40683L61.8577 2.43834L61.8947 2.53125ZM62.1115 2.89453L62.1735 2.973L62.2423 2.91862L62.1974 2.84329L62.1115 2.89453ZM59.6857 4.81055L59.6236 4.88893L62.0494 6.8108L62.1115 6.73242L62.1736 6.65404L59.7478 4.73217L59.6857 4.81055ZM62.1115 6.73242L62.026 6.68056L61.8092 7.03798L61.8947 7.08984L61.9802 7.1417L62.197 6.78428L62.1115 6.73242ZM61.8947 7.08984L61.9318 6.997L59.0607 5.84856L59.0236 5.94141L58.9865 6.03425L61.8575 7.18269L61.8947 7.08984ZM59.0236 5.94141L58.9246 5.92718L58.4852 8.98578L58.5841 9L58.6831 9.01422L59.1226 5.95563L59.0236 5.94141ZM58.5841 9V8.9H58.1623V9V9.1H58.5841V9ZM58.1623 9L58.2612 8.98559L57.8159 5.927L57.7169 5.94141L57.618 5.95581L58.0633 9.01441L58.1623 9ZM57.7169 5.94141L57.6797 5.84858L54.8145 6.99702L54.8517 7.08984L54.8889 7.18266L57.7542 6.03423L57.7169 5.94141ZM54.8517 7.08984L54.9385 7.04008L54.7334 6.68265L54.6466 6.73242L54.5599 6.78219L54.765 7.13961L54.8517 7.08984ZM54.6466 6.73242L54.709 6.81058L57.1172 4.88871L57.0548 4.81055L56.9925 4.73239L54.5843 6.65426L54.6466 6.73242ZM57.0548 4.81055L57.1171 4.73229L54.7089 2.81628L54.6466 2.89453L54.5844 2.97278L56.9926 4.8888L57.0548 4.81055ZM54.6466 2.89453L54.7337 2.94369L54.9388 2.58041L54.8517 2.53125L54.7646 2.48209L54.5596 2.84537L54.6466 2.89453ZM54.8517 2.53125L54.8147 2.62414L57.6799 3.76671L57.7169 3.67383L57.754 3.58094L54.8888 2.43836L54.8517 2.53125ZM57.7169 3.67383L57.8159 3.68821L58.2612 0.623755L58.1623 0.609375L58.0633 0.594995L57.618 3.65945L57.7169 3.67383ZM58.1623 0.609375V0.709375H58.5841V0.609375V0.509375H58.1623V0.609375ZM58.5841 0.609375L58.4851 0.62357L58.9246 3.68802L59.0236 3.67383L59.1226 3.65963L58.6831 0.59518L58.5841 0.609375ZM59.0236 3.67383L59.0606 3.76674L61.9317 2.62416L61.8947 2.53125L61.8577 2.43834L58.9866 3.58092L59.0236 3.67383ZM61.8947 2.53125L61.8088 2.5825L62.0256 2.94578L62.1115 2.89453L62.1974 2.84329L61.9806 2.48L61.8947 2.53125ZM62.1115 2.89453L62.0495 2.81606L59.6237 4.73207L59.6857 4.81055L59.7477 4.88902L62.1735 2.973L62.1115 2.89453Z" fill="#1F1F1F" mask="url(#path-1-outside-1_42_67)"/>
</svg>
